<svg id="visual" viewBox="0 0 675 900" width="675" height="900" xmlns="http://www.w3.org/2000/svg" xmlns:xlink="http://www.w3.org/1999/xlink" version="1.1"><rect x="0" y="0" width="675" height="900" fill="#001220"></rect><path d="M0 604L22.5 604.5C45 605 90 606 135 613.8C180 621.7 225 636.3 270 629.2C315 622 360 593 405 580C450 567 495 570 540 577.2C585 584.3 630 595.7 652.5 601.3L675 607L675 901L652.5 901C630 901 585 901 540 901C495 901 450 901 405 901C360 901 315 901 270 901C225 901 180 901 135 901C90 901 45 901 22.5 901L0 901Z" fill="#69faa2"></path><path d="M0 704L22.5 697.7C45 691.3 90 678.7 135 672.7C180 666.7 225 667.3 270 666.5C315 665.7 360 663.3 405 660.5C450 657.7 495 654.3 540 656.5C585 658.7 630 666.3 652.5 670.2L675 674L675 901L652.5 901C630 901 585 901 540 901C495 901 450 901 405 901C360 901 315 901 270 901C225 901 180 901 135 901C90 901 45 901 22.5 901L0 901Z" fill="#00cdfe"></path><path d="M0 719L22.5 724C45 729 90 739 135 745.2C180 751.3 225 753.7 270 751.3C315 749 360 742 405 738.2C450 734.3 495 733.7 540 732.8C585 732 630 731 652.5 730.5L675 730L675 901L652.5 901C630 901 585 901 540 901C495 901 450 901 405 901C360 901 315 901 270 901C225 901 180 901 135 901C90 901 45 901 22.5 901L0 901Z" fill="#0087f8"></path><path d="M0 819L22.5 815.8C45 812.7 90 806.3 135 810.2C180 814 225 828 270 833.2C315 838.3 360 834.7 405 834.2C450 833.7 495 836.3 540 837.8C585 839.3 630 839.7 652.5 839.8L675 840L675 901L652.5 901C630 901 585 901 540 901C495 901 450 901 405 901C360 901 315 901 270 901C225 901 180 901 135 901C90 901 45 901 22.5 901L0 901Z" fill="#3424cd"></path></svg>